<?xml version="1.0" encoding="UTF-8" standalone="no"?>
<!DOCTYPE svg PUBLIC "-//W3C//DTD SVG 1.1//EN"
 "http://www.w3.org/Graphics/SVG/1.1/DTD/svg11.dtd">
<!-- Generated by graphviz version 10.0.1 (20240210.2158)
 -->
<!-- Pages: 1 -->
<svg width="542pt" height="237pt"
 viewBox="0.00 0.00 542.45 236.77" xmlns="http://www.w3.org/2000/svg" xmlns:xlink="http://www.w3.org/1999/xlink">
<g id="graph0" class="graph" transform="scale(1 1) rotate(0) translate(4 232.77)">
<polygon fill="white" stroke="none" points="-4,4 -4,-232.77 538.45,-232.77 538.45,4 -4,4"/>
<!-- carport.vis -->
<g id="node1" class="node">
<title>carport.vis</title>
<ellipse fill="none" stroke="black" cx="241.77" cy="-45.38" rx="81.32" ry="18.38"/>
<text text-anchor="middle" x="241.77" y="-41.08" font-family="fira code retina" font-size="14.00">carport.vis</text>
</g>
<!-- carport.core -->
<g id="node2" class="node">
<title>carport.core</title>
<ellipse fill="none" stroke="black" cx="446.77" cy="-127.38" rx="87.68" ry="18.38"/>
<text text-anchor="middle" x="446.77" y="-123.08" font-family="fira code retina" font-size="14.00">carport.core</text>
</g>
<!-- carport.vis&#45;&gt;carport.core -->
<g id="edge1" class="edge">
<title>carport.vis&#45;&gt;carport.core</title>
<path fill="none" stroke="black" d="M288.87,-60.75C300.13,-64.7 312.09,-69.06 323.09,-73.38 348.41,-83.36 376.21,-95.49 398.93,-105.73"/>
<polygon fill="black" stroke="black" points="397.38,-108.87 407.93,-109.81 400.27,-102.49 397.38,-108.87"/>
</g>
<!-- networkx -->
<g id="node3" class="node">
<title>networkx</title>
<ellipse fill="none" stroke="black" cx="241.77" cy="-210.38" rx="62.23" ry="18.38"/>
<text text-anchor="middle" x="241.77" y="-206.08" font-family="fira code retina" font-size="14.00">networkx</text>
</g>
<!-- networkx&#45;&gt;carport.core -->
<g id="edge2" class="edge">
<title>networkx&#45;&gt;carport.core</title>
<path fill="none" stroke="black" d="M284.29,-196.67C296.84,-192.32 310.6,-187.35 323.09,-182.38 348.64,-172.22 376.67,-159.76 399.47,-149.27"/>
<polygon fill="black" stroke="black" points="400.9,-152.47 408.51,-145.09 397.96,-146.11 400.9,-152.47"/>
</g>
<!-- pathlib -->
<g id="node4" class="node">
<title>pathlib</title>
<ellipse fill="none" stroke="black" cx="241.77" cy="-155.38" rx="55.86" ry="18.38"/>
<text text-anchor="middle" x="241.77" y="-151.08" font-family="fira code retina" font-size="14.00">pathlib</text>
</g>
<!-- pathlib&#45;&gt;carport.core -->
<g id="edge3" class="edge">
<title>pathlib&#45;&gt;carport.core</title>
<path fill="none" stroke="black" d="M293.99,-148.32C314.48,-145.49 338.63,-142.16 361.56,-139"/>
<polygon fill="black" stroke="black" points="361.78,-142.5 371.2,-137.67 360.82,-135.57 361.78,-142.5"/>
</g>
<!-- ast -->
<g id="node5" class="node">
<title>ast</title>
<ellipse fill="none" stroke="black" cx="241.77" cy="-100.38" rx="30.41" ry="18.38"/>
<text text-anchor="middle" x="241.77" y="-96.08" font-family="fira code retina" font-size="14.00">ast</text>
</g>
<!-- ast&#45;&gt;carport.core -->
<g id="edge4" class="edge">
<title>ast&#45;&gt;carport.core</title>
<path fill="none" stroke="black" d="M271.85,-104.25C295.09,-107.34 328.91,-111.84 360.55,-116.05"/>
<polygon fill="black" stroke="black" points="359.76,-119.48 370.13,-117.33 360.68,-112.54 359.76,-119.48"/>
</g>
<!-- kroki -->
<g id="node6" class="node">
<title>kroki</title>
<ellipse fill="none" stroke="black" cx="62.23" cy="-73.38" rx="43.13" ry="18.38"/>
<text text-anchor="middle" x="62.23" y="-69.08" font-family="fira code retina" font-size="14.00">kroki</text>
</g>
<!-- kroki&#45;&gt;carport.vis -->
<g id="edge5" class="edge">
<title>kroki&#45;&gt;carport.vis</title>
<path fill="none" stroke="black" d="M103.07,-67.1C120.75,-64.31 142.2,-60.93 162.86,-57.67"/>
<polygon fill="black" stroke="black" points="163.39,-61.13 172.73,-56.12 162.3,-54.22 163.39,-61.13"/>
</g>
<!-- graphviz -->
<g id="node7" class="node">
<title>graphviz</title>
<ellipse fill="none" stroke="black" cx="62.23" cy="-18.38" rx="62.23" ry="18.38"/>
<text text-anchor="middle" x="62.23" y="-14.08" font-family="fira code retina" font-size="14.00">graphviz</text>
</g>
<!-- graphviz&#45;&gt;carport.vis -->
<g id="edge6" class="edge">
<title>graphviz&#45;&gt;carport.vis</title>
<path fill="none" stroke="black" d="M117.94,-26.71C131.91,-28.83 147.2,-31.15 162.1,-33.42"/>
<polygon fill="black" stroke="black" points="161.49,-36.87 171.9,-34.91 162.54,-29.95 161.49,-36.87"/>
</g>
</g>
</svg>
