<?xml version="1.0" encoding="UTF-8" standalone="no"?>
<!DOCTYPE svg PUBLIC "-//W3C//DTD SVG 1.1//EN"
 "http://www.w3.org/Graphics/SVG/1.1/DTD/svg11.dtd">
<!-- Generated by graphviz version 10.0.1 (20240210.2158)
 -->
<!-- Pages: 1 -->
<svg width="542pt" height="237pt"
 viewBox="0.00 0.00 542.45 236.77" xmlns="http://www.w3.org/2000/svg" xmlns:xlink="http://www.w3.org/1999/xlink">
<g id="graph0" class="graph" transform="scale(1 1) rotate(0) translate(4 232.77)">
<polygon fill="white" stroke="none" points="-4,4 -4,-232.77 538.45,-232.77 538.45,4 -4,4"/>
<!-- carport.vis -->
<g id="node1" class="node">
<title>carport.vis</title>
<ellipse fill="none" stroke="black" cx="241.77" cy="-45.38" rx="81.32" ry="18.38"/>
<text text-anchor="middle" x="241.77" y="-41.08" font-family="fira code retina" font-size="14.00">carport.vis</text>
</g>
<!-- carport.core -->
<g id="node2" class="node">
<title>carport.core</title>
<ellipse fill="none" stroke="black" cx="446.77" cy="-127.38" rx="87.68" ry="18.38"/>
<text text-anchor="middle" x="446.77" y="-123.08" font-family="fira code retina" font-size="14.00">carport.core</text>
</g>
<!-- carport.vis&#45;&gt;carport.core -->
<g id="edge1" class="edge">
<title>carport.vis&#45;&gt;carport.core</title>
<path fill="none" stroke="black" d="M288.87,-60.75C300.13,-64.7 312.09,-69.06 323.09,-73.38 348.41,-83.36 376.21,-95.49 398.93,-105.73"/>
<polygon fill="black" stroke="black" points="397.38,-108.87 407.93,-109.81 400.27,-102.49 397.38,-108.87"/>
</g>
<!-- pathlib -->
<g id="node3" class="node">
<title>pathlib</title>
<ellipse fill="none" stroke="black" cx="241.77" cy="-210.38" rx="55.86" ry="18.38"/>
<text text-anchor="middle" x="241.77" y="-206.08" font-family="fira code retina" font-size="14.00">pathlib</text>
</g>
<!-- pathlib&#45;&gt;carport.core -->
<g id="edge2" class="edge">
<title>pathlib&#45;&gt;carport.core</title>
<path fill="none" stroke="black" d="M282.24,-197.38C295.32,-192.87 309.91,-187.62 323.09,-182.38 348.64,-172.22 376.67,-159.76 399.47,-149.27"/>
<polygon fill="black" stroke="black" points="400.9,-152.47 408.51,-145.09 397.96,-146.11 400.9,-152.47"/>
</g>
<!-- networkx -->
<g id="node4" class="node">
<title>networkx</title>
<ellipse fill="none" stroke="black" cx="241.77" cy="-155.38" rx="62.23" ry="18.38"/>
<text text-anchor="middle" x="241.77" y="-151.08" font-family="fira code retina" font-size="14.00">networkx</text>
</g>
<!-- networkx&#45;&gt;carport.core -->
<g id="edge3" class="edge">
<title>networkx&#45;&gt;carport.core</title>
<path fill="none" stroke="black" d="M298.78,-147.66C318.07,-145 340.14,-141.95 361.2,-139.05"/>
<polygon fill="black" stroke="black" points="361.51,-142.54 370.94,-137.71 360.56,-135.6 361.51,-142.54"/>
</g>
<!-- ast -->
<g id="node5" class="node">
<title>ast</title>
<ellipse fill="none" stroke="black" cx="241.77" cy="-100.38" rx="30.41" ry="18.38"/>
<text text-anchor="middle" x="241.77" y="-96.08" font-family="fira code retina" font-size="14.00">ast</text>
</g>
<!-- ast&#45;&gt;carport.core -->
<g id="edge4" class="edge">
<title>ast&#45;&gt;carport.core</title>
<path fill="none" stroke="black" d="M271.85,-104.25C295.09,-107.34 328.91,-111.84 360.55,-116.05"/>
<polygon fill="black" stroke="black" points="359.76,-119.48 370.13,-117.33 360.68,-112.54 359.76,-119.48"/>
</g>
<!-- graphviz -->
<g id="node6" class="node">
<title>graphviz</title>
<ellipse fill="none" stroke="black" cx="62.23" cy="-73.38" rx="62.23" ry="18.38"/>
<text text-anchor="middle" x="62.23" y="-69.08" font-family="fira code retina" font-size="14.00">graphviz</text>
</g>
<!-- graphviz&#45;&gt;carport.vis -->
<g id="edge5" class="edge">
<title>graphviz&#45;&gt;carport.vis</title>
<path fill="none" stroke="black" d="M117.94,-64.76C132.21,-62.51 147.86,-60.04 163.07,-57.64"/>
<polygon fill="black" stroke="black" points="163.21,-61.16 172.54,-56.14 162.12,-54.25 163.21,-61.16"/>
</g>
<!-- kroki -->
<g id="node7" class="node">
<title>kroki</title>
<ellipse fill="none" stroke="black" cx="62.23" cy="-18.38" rx="43.13" ry="18.38"/>
<text text-anchor="middle" x="62.23" y="-14.08" font-family="fira code retina" font-size="14.00">kroki</text>
</g>
<!-- kroki&#45;&gt;carport.vis -->
<g id="edge6" class="edge">
<title>kroki&#45;&gt;carport.vis</title>
<path fill="none" stroke="black" d="M103.07,-24.44C120.49,-27.09 141.58,-30.3 161.95,-33.4"/>
<polygon fill="black" stroke="black" points="161.26,-36.83 171.67,-34.88 162.31,-29.91 161.26,-36.83"/>
</g>
</g>
</svg>
